<svg width="20" height="20" viewBox="0 0 20 20" fill="none" xmlns="http://www.w3.org/2000/svg">
<path d="M0 10.2467C0 15.5728 4.31769 19.8905 9.64384 19.8905C14.97 19.8905 19.2877 15.5728 19.2877 10.2467C19.2877 4.92056 14.97 0.602867 9.64384 0.602867C4.31769 0.602867 0 4.92056 0 10.2467Z" fill="#DBE6EC"/>
<path fill-rule="evenodd" clip-rule="evenodd" d="M9.48318 5C6.45566 5 4 7.45566 4 10.4832C4 12.9052 5.58104 14.9572 7.73394 15.6972C8.00306 15.7309 8.10398 15.5627 8.10398 15.4281C8.10398 15.2936 8.10398 14.9572 8.10398 14.4862C6.59021 14.8226 6.25382 13.7462 6.25382 13.7462C6.01835 13.107 5.64832 12.9388 5.64832 12.9388C5.14373 12.6024 5.68196 12.6024 5.68196 12.6024C6.22018 12.6361 6.52294 13.1743 6.52294 13.1743C7.02752 14.0153 7.80122 13.7798 8.10398 13.6453C8.13761 13.2752 8.30581 13.0398 8.44037 12.9052C7.22936 12.7706 5.95107 12.2997 5.95107 10.1804C5.95107 9.57492 6.15291 9.10398 6.52294 8.70031C6.4893 8.59939 6.28746 8.02752 6.59021 7.28746C6.59021 7.28746 7.06116 7.15291 8.10398 7.85933C8.54128 7.72477 9.01223 7.69113 9.48318 7.69113C9.95413 7.69113 10.4251 7.75841 10.8624 7.85933C11.9052 7.15291 12.3761 7.28746 12.3761 7.28746C12.6789 8.02752 12.4771 8.59939 12.4434 8.73394C12.7798 9.10398 13.0153 9.60856 13.0153 10.2141C13.0153 12.3333 11.737 12.7706 10.526 12.9052C10.7278 13.0734 10.896 13.4098 10.896 13.9144C10.896 14.6544 10.896 15.2263 10.896 15.4281C10.896 15.5627 10.9969 15.7309 11.2661 15.6972C13.4526 14.9572 15 12.9052 15 10.4832C14.9664 7.45566 12.5107 5 9.48318 5Z" fill="#131212"/>
</svg>
