<svg width="20" height="20" viewBox="0 0 20 20" fill="none" xmlns="http://www.w3.org/2000/svg">
<rect x="0.575317" y="0.602783" width="19.2877" height="19.2877" rx="9.64384" fill="#DBE6EC"/>
<path fill-rule="evenodd" clip-rule="evenodd" d="M9.07839 5.00454C9.07478 5.00816 9.07182 5.84869 9.07182 6.87241V8.73372L9.04977 8.72818C9.03764 8.72513 8.4743 8.54428 7.7979 8.32628C7.1215 8.10827 6.31958 7.84985 6.01584 7.75199C5.71209 7.65414 5.46257 7.57546 5.46133 7.57712C5.44842 7.59459 4.76145 9.73617 4.76712 9.74126C4.77135 9.74505 5.57296 10.036 6.54849 10.3877C7.52401 10.7395 8.32793 11.0295 8.33498 11.0322C8.34203 11.0348 8.34585 11.042 8.34347 11.0482C8.3411 11.0544 7.84481 11.7362 7.24062 12.5634C6.63642 13.3906 6.14217 14.0695 6.1423 14.0722C6.14255 14.0779 7.94367 15.449 7.95087 15.449C7.95351 15.449 8.46398 14.7766 9.08526 13.9546C9.70654 13.1327 10.2189 12.4607 10.2239 12.4612C10.229 12.4618 10.7534 13.1505 11.3894 13.9918C12.0253 14.8331 12.5485 15.5241 12.552 15.5275C12.5579 15.5331 14.3689 14.2267 14.4041 14.1913C14.4191 14.1763 14.3419 14.0641 13.314 12.6072C12.6568 11.6758 12.2127 11.0377 12.2199 11.0353C12.436 10.9645 15.7621 9.82585 15.767 9.821C15.7783 9.80968 15.0772 7.66346 15.0621 7.66346C15.055 7.66346 14.2532 7.90379 13.2803 8.19753C12.3075 8.49126 11.5072 8.73159 11.5019 8.73159C11.4957 8.73159 11.4914 8.07607 11.4898 6.86727L11.4874 5.00294L10.2862 5.00045C9.6255 4.99908 9.082 5.00092 9.07839 5.00454Z" fill="#131212"/>
</svg>
