<svg width="25" height="23" viewBox="0 0 25 23" fill="none" xmlns="http://www.w3.org/2000/svg">
<path d="M12.3214 6.27273C10.62 6.27273 9.24107 7.67677 9.24107 9.40909C9.24107 11.1414 10.62 12.5455 12.3214 12.5455C14.0228 12.5455 15.4018 11.1414 15.4018 9.40909C15.4018 7.67677 14.0228 6.27273 12.3214 6.27273ZM3.08036 10.4545C1.37897 10.4545 0 11.8586 0 13.5909C0 15.3232 1.37897 16.7273 3.08036 16.7273C4.78174 16.7273 6.16071 15.3232 6.16071 13.5909C6.16071 11.8586 4.78174 10.4545 3.08036 10.4545ZM21.5625 10.4545C19.8611 10.4545 18.4821 11.8586 18.4821 13.5909C18.4821 15.3232 19.8611 16.7273 21.5625 16.7273C23.2639 16.7273 24.6429 15.3232 24.6429 13.5909C24.6429 11.8586 23.2639 10.4545 21.5625 10.4545ZM12.3214 4.18182C12.6736 4.18182 13.0166 4.21841 13.3482 4.28741V1.04545C13.3482 0.468364 12.8892 0 12.3214 0C11.7536 0 11.2946 0.468364 11.2946 1.04545V4.28741C11.6263 4.21841 11.9692 4.18182 12.3214 4.18182ZM21.5625 8.36364C21.9147 8.36364 22.2576 8.40023 22.5893 8.46923V1.04545C22.5893 0.468364 22.1303 0 21.5625 0C20.9947 0 20.5357 0.468364 20.5357 1.04545V8.46923C20.8674 8.40023 21.2103 8.36364 21.5625 8.36364ZM21.5625 18.8182C21.2103 18.8182 20.8674 18.7816 20.5357 18.7126V21.9545C20.5357 22.5316 20.9947 23 21.5625 23C22.1303 23 22.5893 22.5316 22.5893 21.9545V18.7126C22.2576 18.7816 21.9147 18.8182 21.5625 18.8182ZM3.08036 8.36364C3.43254 8.36364 3.77549 8.40023 4.10714 8.46923V1.04545C4.10714 0.468364 3.64817 0 3.08036 0C2.51254 0 2.05357 0.468364 2.05357 1.04545V8.46923C2.38522 8.40023 2.72817 8.36364 3.08036 8.36364ZM12.3214 14.6364C11.9692 14.6364 11.6263 14.5998 11.2946 14.5308V21.9545C11.2946 22.5316 11.7536 23 12.3214 23C12.8892 23 13.3482 22.5316 13.3482 21.9545V14.5308C13.0166 14.5998 12.6736 14.6364 12.3214 14.6364ZM3.08036 18.8182C2.72817 18.8182 2.38522 18.7816 2.05357 18.7126V21.9545C2.05357 22.5316 2.51254 23 3.08036 23C3.64817 23 4.10714 22.5316 4.10714 21.9545V18.7126C3.77549 18.7816 3.43254 18.8182 3.08036 18.8182Z" fill="#DBE6EC"/>
</svg>
