<svg width="96" height="95" viewBox="0 0 96 95" fill="none" xmlns="http://www.w3.org/2000/svg">
<path d="M45.5435 1.32056C46.765 -0.330568 49.235 -0.330567 50.4565 1.32056L56.2909 9.20743C57.1372 10.3514 58.6612 10.7598 59.9661 10.1922L68.9624 6.2792C70.8457 5.46002 72.9848 6.69501 73.2171 8.73566L74.3264 18.4831C74.4874 19.897 75.603 21.0126 77.0169 21.1736L86.7643 22.2829C88.805 22.5152 90.04 24.6543 89.2208 26.5376L85.3078 35.5339C84.7402 36.8388 85.1486 38.3628 86.2926 39.2091L94.1794 45.0435C95.8306 46.265 95.8306 48.735 94.1794 49.9565L86.2926 55.7909C85.1486 56.6372 84.7402 58.1612 85.3078 59.4661L89.2208 68.4624C90.04 70.3457 88.805 72.4848 86.7643 72.7171L77.0169 73.8264C75.603 73.9874 74.4874 75.103 74.3264 76.5169L73.2171 86.2643C72.9848 88.305 70.8457 89.54 68.9624 88.7208L59.9661 84.8078C58.6612 84.2402 57.1372 84.6486 56.2909 85.7926L50.4565 93.6794C49.235 95.3306 46.765 95.3306 45.5435 93.6794L39.7091 85.7926C38.8628 84.6486 37.3388 84.2402 36.0339 84.8078L27.0376 88.7208C25.1543 89.54 23.0152 88.305 22.7829 86.2643L21.6736 76.5169C21.5126 75.103 20.397 73.9874 18.9831 73.8264L9.23565 72.7171C7.19501 72.4848 5.96002 70.3457 6.7792 68.4624L10.6922 59.4661C11.2598 58.1612 10.8514 56.6372 9.70743 55.7909L1.82056 49.9565C0.169432 48.735 0.169433 46.265 1.82056 45.0435L9.70743 39.2091C10.8514 38.3628 11.2598 36.8388 10.6922 35.5339L6.7792 26.5376C5.96002 24.6543 7.19501 22.5152 9.23566 22.2829L18.9831 21.1736C20.397 21.0126 21.5126 19.897 21.6736 18.4831L22.7829 8.73565C23.0152 6.69501 25.1543 5.46002 27.0376 6.2792L36.0339 10.1922C37.3388 10.7598 38.8628 10.3514 39.7091 9.20743L45.5435 1.32056Z" fill="#E3FD41"/>
</svg>
